<svg id="Layer_1" data-name="Layer 1" xmlns="http://www.w3.org/2000/svg" viewBox="0 0 184.44 72.75"><defs><style>.cls-1{font-size:30px;font-family:BebasNeueBold;letter-spacing:0.04em;}.cls-2{letter-spacing:0.02em;}.cls-3{font-size:40.53px;letter-spacing:0.04em;}.cls-3,.cls-7{fill:#4e26fd;}.cls-4{letter-spacing:0.03em;}.cls-5{letter-spacing:0.04em;}.cls-6{letter-spacing:0.05em;}.cls-7{fill-rule:evenodd;}</style></defs><title>logo</title><text class="cls-1" transform="translate(0 30.51)">H<tspan class="cls-2" x="20.88" y="0">O</tspan><tspan x="42.12" y="0">TEL</tspan><tspan class="cls-3"><tspan x="0" y="32.11">A</tspan><tspan class="cls-4" x="26.42" y="32.11">M</tspan><tspan class="cls-5" x="60.39" y="32.11">ARI </tspan><tspan class="cls-6" x="132.4" y="32.11">C</tspan><tspan class="cls-5" x="157.85" y="32.11">A</tspan></tspan></text><g id="Shape_1_copy_2" data-name="Shape 1 copy 2"><polygon class="cls-7" points="113.28 16.47 109.38 15.68 107.47 12 105.55 15.68 101.66 16.47 104.37 19.53 103.88 23.7 107.47 21.92 111.06 23.7 110.57 19.53 113.28 16.47"/></g><g id="Shape_1_copy_2-2" data-name="Shape 1 copy 2"><polygon class="cls-7" points="137.28 16.47 133.38 15.68 131.47 12 129.55 15.68 125.66 16.47 128.37 19.53 127.88 23.7 131.47 21.92 135.06 23.7 134.57 19.53 137.28 16.47"/></g><g id="Shape_1_copy_2-3" data-name="Shape 1 copy 2"><polygon class="cls-7" points="125.28 4.47 121.38 3.68 119.47 0 117.55 3.68 113.66 4.47 116.37 7.53 115.88 11.7 119.47 9.92 123.06 11.7 122.57 7.53 125.28 4.47"/></g></svg>