<svg id="Layer_1" data-name="Layer 1" xmlns="http://www.w3.org/2000/svg" viewBox="0 0 184.44 76.75"><defs><style>.cls-1{font-size:30px;fill:#fff;font-family:BebasNeueBold;letter-spacing:0.04em;}.cls-2{letter-spacing:0.02em;}.cls-3{font-size:40.53px;letter-spacing:0.04em;}.cls-3,.cls-7{fill:#4e26fd;}.cls-4{letter-spacing:0.03em;}.cls-5{letter-spacing:0.04em;}.cls-6{letter-spacing:0.05em;}.cls-7{fill-rule:evenodd;}</style></defs><title>logo1</title><text class="cls-1" transform="translate(0 34.51)">H<tspan class="cls-2" x="20.88" y="0">O</tspan><tspan x="42.12" y="0">TEL</tspan><tspan class="cls-3"><tspan x="0" y="32.11">A</tspan><tspan class="cls-4" x="26.42" y="32.11">M</tspan><tspan class="cls-5" x="60.39" y="32.11">ARI </tspan><tspan class="cls-6" x="132.4" y="32.11">C</tspan><tspan class="cls-5" x="157.85" y="32.11">A</tspan></tspan></text><g id="Shape_1_copy_3" data-name="Shape 1 copy 3"><polygon class="cls-7" points="105.95 20.17 102.05 19.38 100.14 15.7 98.22 19.38 94.32 20.17 97.04 23.23 96.54 27.4 100.14 25.62 103.73 27.4 103.23 23.23 105.95 20.17"/></g><g id="Shape_1_copy_3-2" data-name="Shape 1 copy 3"><polygon class="cls-7" points="131.95 20.17 128.05 19.38 126.14 15.7 124.22 19.38 120.32 20.17 123.04 23.23 122.54 27.4 126.14 25.62 129.73 27.4 129.24 23.23 131.95 20.17"/></g><g id="Shape_1_copy_3-3" data-name="Shape 1 copy 3"><polygon class="cls-7" points="119.91 4.47 116.01 3.68 114.09 0 112.18 3.68 108.28 4.47 110.99 7.53 110.5 11.7 114.09 9.92 117.69 11.7 117.19 7.53 119.91 4.47"/></g></svg>